<?xml version="1.0" encoding="UTF-8"?>
<svg width="153px" height="153px" viewBox="0 0 153 153" version="1.1" xmlns="http://www.w3.org/2000/svg" xmlns:xlink="http://www.w3.org/1999/xlink">
    <!-- Generator: Sketch 43.1 (39012) - http://www.bohemiancoding.com/sketch -->
    <title>logo-color</title>
    <desc>Created with Sketch.</desc>
    <defs>
        <filter x="-22.3%" y="-16.7%" width="144.6%" height="145.0%" filterUnits="objectBoundingBox" id="filter-1">
            <feOffset dx="0" dy="7" in="SourceAlpha" result="shadowOffsetOuter1"></feOffset>
            <feGaussianBlur stdDeviation="6.5" in="shadowOffsetOuter1" result="shadowBlurOuter1"></feGaussianBlur>
            <feColorMatrix values="0 0 0 0 0   0 0 0 0 0   0 0 0 0 0  0 0 0 0.19 0" type="matrix" in="shadowBlurOuter1" result="shadowMatrixOuter1"></feColorMatrix>
            <feMerge>
                <feMergeNode in="shadowMatrixOuter1"></feMergeNode>
                <feMergeNode in="SourceGraphic"></feMergeNode>
            </feMerge>
        </filter>
        <path d="M59.8894709,119.778942 C92.9655123,119.778942 119.778942,92.9655123 119.778942,59.8894709 C119.778942,26.8134294 92.9655123,0 59.8894709,0 C26.8134294,0 0,26.8134294 0,59.8894709 C0,92.9655123 26.8134294,119.778942 59.8894709,119.778942 Z" id="path-2"></path>
        <linearGradient x1="42.9104785%" y1="44.6078318%" x2="0%" y2="2.20339532%" id="linearGradient-4">
            <stop stop-color="#01006D" stop-opacity="-0.00770211876" offset="0%"></stop>
            <stop stop-color="#FF6D00" stop-opacity="0" offset="0%"></stop>
            <stop stop-color="#EF9101" offset="100%"></stop>
        </linearGradient>
        <path d="M59.8894709,119.778942 C92.9655123,119.778942 119.778942,92.9655123 119.778942,59.8894709 C119.778942,26.8134294 92.9655123,0 59.8894709,0 C26.8134294,0 0,26.8134294 0,59.8894709 C0,92.9655123 26.8134294,119.778942 59.8894709,119.778942 Z" id="path-5"></path>
    </defs>
    <g id="Welcome" stroke="none" stroke-width="1" fill="none" fill-rule="evenodd">
        <g id="Index" transform="translate(-225.000000, -777.000000)">
            <g id="3_part" transform="translate(0.000000, 725.000000)">
                <g id="logo-color" filter="url(#filter-1)" transform="translate(241.000000, 62.000000)">
                    <g id="Mask" transform="translate(0.500000, 0.000000)" fill-rule="nonzero" fill="#FF9800">
                        <path d="M59.8894709,119.778942 C92.9655123,119.778942 119.778942,92.9655123 119.778942,59.8894709 C119.778942,26.8134294 92.9655123,0 59.8894709,0 C26.8134294,0 0,26.8134294 0,59.8894709 C0,92.9655123 26.8134294,119.778942 59.8894709,119.778942 Z" id="path-2"></path>
                    </g>
                    <g id="Rectangle-11-Copy-Clipped" transform="translate(0.500000, 0.000000)">
                        <g>
                            <mask id="mask-3" fill="white">
                                <use xlink:href="#path-2"></use>
                            </mask>
                            <g id="path-1"></g>
                            <path d="M60.4257319,38.5627787 C58.8101794,38.7388472 58.48477,42.5325476 57.0362937,43.8982537 C38.4837751,61.3906285 40.3246386,56.0945752 40.3619638,81.4291673 L142.62382,183.691023 L183.797831,142.517012 L80.417406,39.1365871 L80.417406,39.1365871 C82.2982148,50.9433403 80.49866,52.1427672 76.8712552,49.7937534 L75.5848827,53.7219294 L60.4257319,38.5627787 Z" id="Rectangle-11-Copy" fill="url(#linearGradient-4)" fill-rule="nonzero" mask="url(#mask-3)"></path>
                        </g>
                    </g>
                    <g id="Mask-Copy-4" transform="translate(0.500000, 0.000000)" stroke="#FFF5DF" stroke-width="7">
                        <path d="M59.8894709,119.778942 C92.9655123,119.778942 119.778942,92.9655123 119.778942,59.8894709 C119.778942,26.8134294 92.9655123,0 59.8894709,0 C26.8134294,0 0,26.8134294 0,59.8894709 C0,92.9655123 26.8134294,119.778942 59.8894709,119.778942 Z" id="path-6"></path>
                    </g>
                    <g id="Imported-Layers-Clipped" transform="translate(0.500000, 0.000000)">
                        <g>
                            <mask id="mask-6" fill="white">
                                <use xlink:href="#path-5"></use>
                            </mask>
                            <g id="path-4"></g>
                            <g id="Imported-Layers" mask="url(#mask-6)">
                                <g transform="translate(38.000000, 38.000000)" id="Group">
                                    <g>
                                        <g fill-rule="nonzero" fill="#FFF5DF">
                                            <path d="M0.11148147,40.116986 C0.11148147,41.6961354 1.34444334,42.9868981 2.85035986,42.9868981 C4.35510992,42.9868981 5.58807178,41.6961354 5.58807178,40.116986 L5.58807178,23.2731139 C5.58807178,20.0020188 8.27212595,17.3251397 11.5522478,17.3251397 L18.9780143,17.3251397 C23.2006463,17.3251397 26.6534061,13.8819429 26.6534061,9.67475414 L26.6534061,7.76186703 C26.6534061,3.55351541 23.2006463,0.11148147 18.9780143,0.11148147 L7.78687322,0.11148147 C3.56424128,0.11148147 0.11148147,3.55351541 0.11148147,7.76186703 L0.11148147,9.67475414 C0.11148147,9.90383545 0.126645617,10.1282654 0.146475657,10.3526953 C0.132477982,10.4713059 0.11148147,10.5887537 0.11148147,10.70969 L0.11148147,40.116986 L0.11148147,37.7269867" id="Fill-1"></path>
                                            <path d="M43.6674603,2.9802307 C43.6674603,1.4022442 42.4344984,0.11148147 40.9285819,0.11148147 C39.4238318,0.11148147 38.19087,1.4022442 38.19087,2.9802307 L38.19087,19.8252657 C38.19087,23.0975236 35.5056493,25.7732399 32.2255275,25.7732399 L24.7985945,25.7732399 C20.577129,25.7732399 17.1255357,29.2152738 17.1255357,33.4236255 L17.1255357,35.3365126 C17.1255357,39.5437013 20.577129,42.9868981 24.7985945,42.9868981 L35.9920685,42.9868981 C40.2123675,42.9868981 43.6674603,39.5437013 43.6674603,35.3365126 L43.6674603,33.4236255 C43.6674603,33.1945441 43.6511297,32.9689514 43.6312996,32.7456843 C43.6452973,32.6259108 43.6674603,32.5107888 43.6674603,32.3875267 L43.6674603,2.9802307" id="Fill-2"></path>
                                        </g>
                                    </g>
                                </g>
                            </g>
                        </g>
                    </g>
                </g>
            </g>
        </g>
    </g>
</svg>